<svg xmlns="http://www.w3.org/2000/svg" version="1.1" xmlns:xlink="http://www.w3.org/1999/xlink" xmlns:svgjs="http://svgjs.dev/svgjs" width="100%" height="100%" viewBox="0 0 1000 600"><rect width="1000" height="600" x="0" y="0" fill="black"/><g><circle r="166.66666666666666" cx="387.53029886881507" cy="409.75251545911533" fill="#16db65" transform="matrix(0.5659600977865562,0,0,0.5659600977865562,0,68.09642246777446)"/><path d="MNaN 409.75252377412374 " fill="#16db65" transform="matrix(0.5659600977865562,0,0,0.5659600977865562,0,68.09642246777446)"/><path d="M653.7424147634795 334.75252365852685L695.287869308934 334.75252365852685Q699.5302935513582 334.75252365852685 703.8939299149946 335.1767660827693Q708.287869308934 335.6010085070117 711.8030208240855 337.20706911307235Q715.318172339237 338.8131297191329 717.5302935513582 341.93434184034504Q719.7727177937825 345.08585699186017 719.7727177937825 350.5100994161026L719.7727177937825 350.5100994161026Q719.7727177937825 355.9646448706481 717.5302935513582 359.0858569918602Q715.318172339237 362.23737214337535 711.8030208240855 363.843432749436Q708.287869308934 365.44949335549654 703.8939299149946 365.873735779739Q699.5302935513582 366.2979782039814 695.287869308934 366.2979782039814L695.287869308934 366.2979782039814L669.9242329452976 366.2979782039814L669.9242329452976 393.9949479009511L683.34847536954 393.9949479009511Q687.4999905210552 393.9949479009511 691.8636268846916 394.2979782039814Q696.227263248328 394.63131153731473 699.7424147634795 396.1161600221632Q703.257566278631 397.6010085070117 705.5605965816612 400.8131297191329Q707.8636268846916 403.9949479009511 707.8636268846916 409.75252365852685L707.8636268846916 409.75252365852685Q707.8636268846916 415.5100994161026 705.6212026422673 418.6919175979208Q703.3787783998431 421.904038810042 699.8636268846915 423.3888872948905Q696.34847536954 424.873735779739 691.9848390059037 425.2070691130723Q687.6212026422673 425.5100994161026 683.34847536954 425.5100994161026L683.34847536954 425.5100994161026L669.9242329452976 425.5100994161026L669.9242329452976 459.3888872948905Q669.9242329452976 464.0858569918602 669.6515056725704 468.44949335549654Q669.3787783998431 472.813129719133 667.8333238543885 476.2979782039814Q666.287869308934 479.75252365852685 662.9848390059037 481.8131297191329Q659.6818087028735 483.904038810042 653.7424147634795 483.904038810042L653.7424147634795 483.904038810042Q647.6515056725704 483.904038810042 644.34847536954 481.8131297191329Q641.0454450665097 479.75252365852685 639.5605965816612 476.2979782039814Q638.0757480968127 472.813129719133 637.8030208240855 468.44949335549654Q637.5302935513582 464.0858569918602 637.5302935513582 459.3888872948905L637.5302935513582 459.3888872948905L637.5302935513582 359.26767517367836Q637.5302935513582 354.6919175979208 637.8030208240855 350.29797820398136Q638.0757480968127 345.93434184034504 639.5605965816612 342.4797963857996Q641.0454450665097 339.0252509312541 644.34847536954 336.873735779739Q647.6515056725704 334.75252365852685 653.7424147634795 334.75252365852685L653.7424147634795 334.75252365852685ZM819.7121117331765 401.66161456761773L819.7121117331765 459.8131297191329Q819.7121117331765 464.2979782039814 819.3787783998431 468.63131153731473Q819.0757480968127 472.93434184034504 817.4696874907521 476.3282812342845Q815.8636268846916 479.75252365852685 812.6818087028734 481.8131297191329Q809.4696874907521 483.904038810042 803.7424147634795 483.904038810042L803.7424147634795 483.904038810042Q797.8636268846916 483.904038810042 794.5605965816612 481.93434184034504Q791.257566278631 479.9646448706481 789.6818087028734 477.14646305246623Q788.0757480968128 474.3282812342845 787.6818087028734 471.23737214337535Q787.3181723392371 468.14646305246623 787.3181723392371 465.9949479009511L787.3181723392371 465.9949479009511Q786.3787783998431 469.0858569918602 784.6212026422673 472.2979782039814Q782.8636268846916 475.4797963857996 780.0757480968128 478.05555396155717Q777.318172339237 480.6010085070117 773.4090814301461 482.26767517367836Q769.5302935513582 483.904038810042 764.318172339237 483.904038810042L764.318172339237 483.904038810042Q758.4393844604491 483.904038810042 752.5908996119643 481.9949479009511Q746.7424147634795 480.0555539615571 742.0454450665097 475.6010085070117Q737.3484753695401 471.1161600221632 734.4393844604491 463.934341840345Q731.4999905210552 456.75252365852685 731.4999905210552 446.1767660827693L731.4999905210552 446.1767660827693L731.4999905210552 415.2979782039814Q731.4999905210552 404.63131153731473 734.4393844604491 397.44949335549654Q737.3484753695401 390.26767517367836 742.0454450665097 385.843432749436Q746.7424147634795 381.41919032519354 752.5908996119643 379.5100994161026Q758.4393844604491 377.57070547670867 764.318172339237 377.57070547670867L764.318172339237 377.57070547670867Q769.5302935513582 377.57070547670867 773.4090814301461 379.1767660827693Q777.318172339237 380.78282668882986 780.0757480968128 383.3282812342844Q782.8636268846916 385.904038810042 784.6212026422673 389.08585699186017Q786.3787783998431 392.2979782039814 787.3181723392371 395.4797963857996L787.3181723392371 395.4797963857996Q787.3181723392371 390.14646305246623 788.8030208240855 386.63131153731473Q790.3181723392371 383.1161600221632 792.6515056725704 381.05555396155717Q794.9848390059037 378.96464487064804 797.9242329452976 378.1767660827693Q800.8636268846916 377.3585842645875 803.7424147634795 377.3585842645875L803.7424147634795 377.3585842645875Q809.0454450665097 377.3585842645875 812.257566278631 379.44949335549654Q815.4393844604491 381.5100994161026 817.1060511271158 384.873735779739Q818.7424147634795 388.23737214337535 819.2272632483279 392.6616145676178Q819.7121117331765 397.08585699186017 819.7121117331765 401.66161456761773L819.7121117331765 401.66161456761773ZM764.318172339237 417.63131153731473L764.318172339237 443.41919032519354Q764.318172339237 446.2979782039814 764.5302935513582 449.05555396155717Q764.7424147634795 451.843432749436 765.6818087028734 454.08585699186017Q766.6515056725704 456.2979782039814 768.5302935513582 457.63131153731473Q770.3787783998431 458.96464487064804 773.6818087028734 458.96464487064804L773.6818087028734 458.96464487064804Q777.8333238543886 458.96464487064804 780.4393844604491 457.1161600221632Q783.0757480968128 455.23737214337535 784.5605965816612 451.3585842645875Q786.0454450665097 447.4797963857996 786.6212026422673 441.57070547670867Q787.227263248328 435.63131153731473 787.3181723392371 427.44949335549654L787.3181723392371 427.44949335549654Q787.3181723392371 424.14646305246623 786.7424147634795 419.8131297191329Q786.1363541574189 415.5100994161026 784.6515056725704 411.66161456761773Q783.1666571877219 407.843432749436 780.4999905210552 405.1767660827693Q777.8333238543886 402.5100994161026 773.6818087028734 402.5100994161026L773.6818087028734 402.5100994161026Q770.3787783998431 402.5100994161026 768.5302935513582 403.8434327494359Q766.6515056725704 405.1767660827693 765.6818087028734 407.2979782039814Q764.7424147634795 409.44949335549654 764.5302935513582 412.14646305246623Q764.318172339237 414.873735779739 764.318172339237 417.63131153731473L764.318172339237 417.63131153731473ZM918.5605965816612 404.2070691130723L894.9242329452976 467.29797820398136Q892.5908996119643 473.44949335549654 890.5605965816613 476.81312971913286Q888.5302935513582 480.1767660827693 886.6212026422673 481.78282668882986Q884.6818087028734 483.3585842645875 882.7727177937825 483.63131153731473Q880.8636268846916 483.904038810042 878.7424147634794 483.904038810042L878.7424147634794 483.904038810042Q876.3787783998431 483.904038810042 874.3484753695401 483.63131153731473Q872.3484753695401 483.3585842645875 870.318172339237 481.8131297191329Q868.287869308934 480.26767517367836 866.1666571877219 476.93434184034504Q864.0151420362067 473.5707054767087 861.6818087028734 467.29797820398136L861.6818087028734 467.29797820398136L837.6212026422673 404.2070691130723Q836.6515056725704 401.66161456761773 835.8636268846916 398.72222062822385Q835.0454450665097 395.8131297191329 835.0454450665097 392.93434184034504L835.0454450665097 392.93434184034504Q835.0454450665097 389.843432749436 835.8636268846916 387.0252509312541Q836.6515056725704 384.1767660827693 838.4696874907522 382.05555396155717Q840.257566278631 379.93434184034504 843.1363541574189 378.6616145676178Q846.0151420362067 377.3585842645875 850.1666571877219 377.3585842645875L850.1666571877219 377.3585842645875Q853.1666571877219 377.3585842645875 855.6515056725704 378.6616145676178Q858.1666571877219 379.93434184034504 860.1363541574189 382.05555396155717Q862.1060511271158 384.1767660827693 863.5908996119643 386.9646448706481Q865.1060511271158 389.72222062822385 865.9545359756006 392.72222062822385L865.9545359756006 392.72222062822385L877.8636268846916 431.4797963857996L879.5908996119643 431.4797963857996L890.6515056725704 392.72222062822385Q891.4090814301461 390.05555396155717 892.8030208240855 387.26767517367836Q894.1666571877219 384.5100994161026 896.1363541574189 382.3282812342844Q898.1060511271158 380.14646305246623 900.8333238543886 378.75252365852685Q903.5605965816612 377.3585842645875 907.0757480968128 377.3585842645875L907.0757480968128 377.3585842645875Q910.8939299149946 377.3585842645875 913.5605965816613 378.6919175979208Q916.2272632483279 380.0252509312541 917.9242329452976 382.2070691130723Q919.6515056725704 384.3888872948905 920.3787783998431 387.26767517367836Q921.1363541574189 390.14646305246623 921.1363541574189 393.14646305246623L921.1363541574189 393.14646305246623Q921.1363541574189 395.904038810042 920.4393844604491 398.6616145676178Q919.7424147634794 401.44949335549654 918.5605965816612 404.2070691130723L918.5605965816612 404.2070691130723ZM940.9545359756006 460.0252509312541L940.9545359756006 401.23737214337535Q940.9545359756006 396.75252365852685 941.4393844604491 392.5100994161026Q941.8939299149946 388.23737214337535 943.6212026422673 384.873735779739Q945.318172339237 381.5100994161026 948.4999905210552 379.44949335549654Q951.7121117331764 377.3585842645875 957.1363541574189 377.3585842645875L957.1363541574189 377.3585842645875Q962.5605965816613 377.3585842645875 965.7727177937825 379.44949335549654Q968.9545359756006 381.5100994161026 970.6818087028734 384.873735779739Q972.3787783998431 388.23737214337535 972.8636268846916 392.5100994161026Q973.3181723392371 396.75252365852685 973.3181723392371 401.23737214337535L973.3181723392371 401.23737214337535L973.3181723392371 460.0252509312541Q973.3181723392371 464.5100994161026 972.8636268846916 468.843432749436Q972.3787783998431 473.14646305246623 970.6818087028734 476.5100994161026Q968.9545359756006 479.8434327494359 965.7727177937825 481.873735779739Q962.5605965816613 483.904038810042 957.1363541574189 483.904038810042L957.1363541574189 483.904038810042Q951.7121117331764 483.904038810042 948.4999905210552 481.873735779739Q945.318172339237 479.8434327494359 943.6212026422673 476.5100994161026Q941.8939299149946 473.14646305246623 941.4393844604491 468.843432749436Q940.9545359756006 464.5100994161026 940.9545359756006 460.0252509312541L940.9545359756006 460.0252509312541ZM973.5302935513582 350.93434184034504L973.5302935513582 350.93434184034504Q973.5302935513582 359.14646305246623 969.2878693089341 363.14646305246623Q965.0151420362067 367.14646305246623 957.3484753695401 367.14646305246623L957.3484753695401 367.14646305246623Q949.6818087028734 367.14646305246623 945.4090814301461 363.14646305246623Q941.1666571877219 359.14646305246623 941.1666571877219 350.93434184034504L941.1666571877219 350.93434184034504Q941.1666571877219 342.41919032519354 945.4090814301461 338.6010085070117Q949.6818087028734 334.75252365852685 957.3484753695401 334.75252365852685L957.3484753695401 334.75252365852685Q965.5605965816613 334.75252365852685 969.5605965816612 338.6010085070117Q973.5302935513582 342.41919032519354 973.5302935513582 350.93434184034504ZM1032.5605965816612 414.0252509312541L1032.5605965816612 447.05555396155717Q1032.5605965816612 448.75252365852685 1032.8939299149947 451.3585842645875Q1033.1969602180247 453.9646448706481 1034.3787783998432 456.4797963857996Q1035.5605965816612 458.96464487064804 1037.8333238543887 460.78282668882986Q1040.1363541574187 462.6010085070117 1044.0757480968127 462.6010085070117L1044.0757480968127 462.6010085070117Q1048.7727177937825 462.6010085070117 1051.4090814301462 461.54040244640566Q1054.0757480968127 460.47979638579955 1055.3484753695402 458.6010085070117Q1056.6515056725702 456.75252365852685 1056.9545359756007 454.23737214337535Q1057.287869308934 451.72222062822385 1057.287869308934 448.9646448706481L1057.287869308934 448.9646448706481Q1057.287869308934 447.57070547670867 1057.7727177937825 445.8131297191329Q1058.2272632483277 444.05555396155717 1060.0454450665097 442.5100994161026Q1061.8636268846917 440.9646448706481 1065.4393844604492 439.9646448706481Q1068.9848390059037 438.93434184034504 1075.1666571877217 438.93434184034504L1075.1666571877217 438.93434184034504Q1080.8333238543887 438.93434184034504 1083.9242329452977 440.23737214337535Q1087.0151420362067 441.5100994161026 1088.4393844604492 443.2676751736784Q1089.8939299149947 445.0252509312541 1090.1060511271157 446.873735779739Q1090.318172339237 448.75252365852685 1090.318172339237 449.8131297191329L1090.318172339237 449.8131297191329Q1090.318172339237 456.63131153731473 1088.227263248328 461.8131297191329Q1086.1363541574187 466.96464487064804 1082.6212026422672 470.75252365852685Q1079.1060511271157 474.5404024464056 1074.5302935513582 477.0858569918602Q1069.9545359756007 479.63131153731473 1064.8030208240855 481.14646305246623Q1059.6212026422672 482.63131153731473 1054.2878693089338 483.26767517367836Q1048.9848390059037 483.904038810042 1044.0757480968127 483.904038810042L1044.0757480968127 483.904038810042Q1035.6515056725702 483.904038810042 1027.7727177937822 481.66161456761773Q1019.8939299149946 479.41919032519354 1013.7727177937826 474.63131153731473Q1007.6212026422673 469.843432749436 1003.8939299149946 462.3282812342844Q1000.1666571877219 454.8131297191329 1000.1666571877219 444.26767517367836L1000.1666571877219 444.26767517367836L1000.1666571877219 419.3585842645875Q1000.1666571877219 409.23737214337535 1002.5605965816612 402.2070691130723Q1004.9848390059037 395.14646305246623 1008.8030208240855 390.4797963857996Q1012.6515056725704 385.78282668882986 1017.4393844604491 383.1767660827693Q1022.2272632483279 380.57070547670867 1027.1363541574187 379.2979782039814Q1032.0454450665097 377.9949479009511 1036.4393844604492 377.6919175979208Q1040.8636268846917 377.3585842645875 1044.0757480968127 377.3585842645875L1044.0757480968127 377.3585842645875Q1053.5605965816612 377.3585842645875 1060.6212026422672 378.96464487064804Q1067.7121117331762 380.57070547670867 1072.8333238543885 383.23737214337535Q1077.9545359756007 385.904038810042 1081.318172339237 389.3585842645875Q1084.6515056725702 392.8131297191329 1086.5908996119642 396.6616145676178Q1088.4999905210552 400.4797963857996 1089.287869308934 404.3282812342844Q1090.1060511271157 408.14646305246623 1090.1060511271157 411.44949335549654L1090.1060511271157 411.44949335549654Q1090.1060511271157 413.1767660827693 1089.8939299149947 415.44949335549654Q1089.6818087028732 417.75252365852685 1088.227263248328 419.8131297191329Q1086.8030208240855 421.904038810042 1083.7121117331762 423.3888872948905Q1080.6212026422672 424.873735779739 1074.9545359756007 424.873735779739L1074.9545359756007 424.873735779739Q1072.9545359756007 424.873735779739 1069.8939299149947 424.72222062822385Q1066.8636268846917 424.57070547670867 1063.9848390059037 423.6010085070117Q1061.1060511271157 422.66161456761773 1059.1060511271157 420.63131153731473Q1057.0757480968127 418.6010085070117 1057.0757480968127 414.873735779739L1057.0757480968127 414.873735779739Q1057.0757480968127 412.2979782039814 1056.8030208240855 409.904038810042Q1056.5302935513582 407.5100994161026 1055.257566278631 405.72222062822385Q1053.9848390059037 403.904038810042 1051.3787783998432 402.78282668882986Q1048.7727177937825 401.66161456761773 1044.0757480968127 401.66161456761773L1044.0757480968127 401.66161456761773Q1040.1363541574187 401.66161456761773 1037.8333238543887 402.93434184034504Q1035.5605965816612 404.2070691130723 1034.3787783998432 406.14646305246623Q1033.1969602180247 408.05555396155717 1032.8939299149947 410.1767660827693Q1032.5605965816612 412.2979782039814 1032.5605965816612 414.0252509312541L1032.5605965816612 414.0252509312541ZM1106.0757480968127 443.843432749436L1106.0757480968127 417.41919032519354Q1106.0757480968127 407.63131153731473 1108.7424147634792 400.8131297191329Q1111.4090814301462 393.9949479009511 1115.6212026422672 389.41919032519354Q1119.8030208240855 384.8131297191329 1124.9848390059037 382.26767517367836Q1130.1363541574187 379.7222206282238 1135.1666571877217 378.44949335549654Q1140.1666571877217 377.14646305246623 1144.4696874907522 376.843432749436Q1148.8030208240855 376.5100994161026 1151.2575662786307 376.5100994161026L1151.2575662786307 376.5100994161026Q1153.6818087028732 376.5100994161026 1157.9545359756007 376.843432749436Q1162.2272632483277 377.14646305246623 1167.0757480968127 378.44949335549654Q1171.9242329452977 379.7222206282238 1176.8636268846917 382.26767517367836Q1181.8333238543885 384.8131297191329 1185.8030208240855 389.41919032519354Q1189.8030208240855 393.9949479009511 1192.3787783998432 400.8131297191329Q1194.9242329452977 407.63131153731473 1194.9242329452977 417.41919032519354L1194.9242329452977 417.41919032519354L1194.9242329452977 443.843432749436Q1194.9242329452977 453.66161456761773 1192.3787783998432 460.47979638579955Q1189.8030208240855 467.29797820398136 1185.8030208240855 471.873735779739Q1181.8333238543885 476.44949335549654 1176.8636268846917 478.9949479009511Q1171.9242329452977 481.57070547670867 1167.0757480968127 482.843432749436Q1162.2272632483277 484.1161600221632 1157.9545359756007 484.44949335549654Q1153.6818087028732 484.75252365852685 1151.2575662786307 484.75252365852685L1151.2575662786307 484.75252365852685Q1148.8030208240855 484.75252365852685 1144.4696874907522 484.44949335549654Q1140.1666571877217 484.1161600221632 1135.1666571877217 482.843432749436Q1130.1363541574187 481.57070547670867 1124.9848390059037 478.9949479009511Q1119.8030208240855 476.44949335549654 1115.6212026422672 471.873735779739Q1111.4090814301462 467.29797820398136 1108.7424147634792 460.47979638579955Q1106.0757480968127 453.66161456761773 1106.0757480968127 443.843432749436L1106.0757480968127 443.843432749436ZM1138.8939299149947 412.75252365852685L1138.8939299149947 451.2979782039814Q1138.9848390059037 454.3888872948905 1140.3787783998432 456.75252365852685L1140.3787783998432 456.75252365852685Q1141.5605965816612 458.873735779739 1144.0454450665097 460.5100994161026Q1146.5605965816612 462.1767660827693 1151.2575662786307 462.1767660827693L1151.2575662786307 462.1767660827693Q1155.7121117331762 462.1767660827693 1158.1060511271157 460.5100994161026Q1160.4999905210552 458.873735779739 1161.6818087028732 456.75252365852685L1161.6818087028732 456.75252365852685Q1162.9545359756007 454.3888872948905 1163.1666571877217 451.2979782039814L1163.1666571877217 451.2979782039814L1163.1666571877217 412.75252365852685Q1162.9545359756007 409.54040244640566 1161.6818087028732 406.873735779739L1161.6818087028732 406.873735779739Q1160.4999905210552 404.75252365852685 1158.1060511271157 402.873735779739Q1155.7121117331762 401.0252509312541 1151.2575662786307 401.0252509312541L1151.2575662786307 401.0252509312541Q1146.5605965816612 401.0252509312541 1144.0454450665097 402.873735779739Q1141.5605965816612 404.75252365852685 1140.3787783998432 406.873735779739L1140.3787783998432 406.873735779739Q1138.9848390059037 409.54040244640566 1138.8939299149947 412.75252365852685L1138.8939299149947 412.75252365852685ZM1306.1363541574187 415.2979782039814L1306.1363541574187 459.6010085070117Q1306.1363541574187 464.20706911307235 1305.6212026422672 468.57070547670867Q1305.0757480968127 472.93434184034504 1303.3181723392368 476.3282812342845Q1301.5605965816612 479.75252365852685 1298.3181723392368 481.8131297191329Q1295.0757480968127 483.904038810042 1289.5302935513582 483.904038810042L1289.5302935513582 483.904038810042Q1284.1060511271157 483.904038810042 1280.8939299149947 481.8131297191329Q1277.7121117331762 479.75252365852685 1275.9848390059037 476.3282812342845Q1274.2878693089338 472.93434184034504 1273.8030208240853 468.57070547670867Q1273.3181723392368 464.20706911307235 1273.3181723392368 459.6010085070117L1273.3181723392368 459.6010085070117L1273.3181723392368 418.05555396155717Q1273.3181723392368 415.0858569918602 1273.0757480968127 412.2070691130723Q1272.8030208240853 409.3282812342844 1271.8333238543887 407.14646305246623Q1270.8939299149947 404.9646448706481 1269.0151420362067 403.63131153731473Q1267.1666571877217 402.2979782039814 1263.9545359756007 402.2979782039814L1263.9545359756007 402.2979782039814Q1259.5908996119642 402.2979782039814 1256.9242329452977 405.1767660827693Q1254.2575662786307 408.05555396155717 1252.7121117331762 413.05555396155717Q1251.1666571877217 418.05555396155717 1250.6515056725702 424.843432749436Q1250.1060511271157 431.6010085070117 1250.1060511271157 439.3585842645875L1250.1060511271157 439.3585842645875L1250.1060511271157 459.6010085070117Q1250.1060511271157 464.20706911307235 1249.5605965816612 468.57070547670867Q1249.0454450665097 472.93434184034504 1247.2878693089338 476.3282812342845Q1245.5302935513582 479.75252365852685 1242.287869308934 481.8131297191329Q1239.0151420362067 483.904038810042 1233.4999905210552 483.904038810042L1233.4999905210552 483.904038810042Q1228.0454450665097 483.904038810042 1224.8636268846917 481.8131297191329Q1221.6515056725702 479.75252365852685 1219.9545359756007 476.3282812342845Q1218.257566278631 472.93434184034504 1217.7727177937825 468.57070547670867Q1217.287869308934 464.20706911307235 1217.287869308934 459.6010085070117L1217.287869308934 459.6010085070117L1217.287869308934 401.44949335549654Q1217.287869308934 396.873735779739 1217.6212026422672 392.54040244640566Q1217.9242329452977 388.23737214337535 1219.5302935513582 384.873735779739Q1221.1363541574187 381.5100994161026 1224.3787783998432 379.44949335549654Q1227.6212026422672 377.3585842645875 1233.4999905210552 377.3585842645875L1233.4999905210552 377.3585842645875Q1239.3484753695402 377.3585842645875 1242.6515056725702 379.3282812342844Q1245.9545359756007 381.2979782039814 1247.5908996119642 384.0858569918602Q1249.2575662786307 386.843432749436 1249.6818087028732 389.93434184034504Q1250.1060511271157 393.02525093125416 1250.1060511271157 395.26767517367836L1250.1060511271157 395.26767517367836Q1250.9545359756007 392.1767660827693 1252.7727177937822 388.9949479009511Q1254.5908996119642 385.78282668882986 1257.4090814301462 383.23737214337535Q1260.2272632483277 380.6616145676178 1264.1666571877217 379.0252509312541Q1268.1060511271157 377.3585842645875 1273.3181723392368 377.3585842645875L1273.3181723392368 377.3585842645875Q1279.1969602180247 377.3585842645875 1285.0454450665097 379.2979782039814Q1290.9242329452977 381.2070691130723 1295.5908996119642 385.6919175979208Q1300.2878693089338 390.14646305246623 1303.2272632483277 397.3888872948905Q1306.1363541574187 404.63131153731473 1306.1363541574187 415.2979782039814L1306.1363541574187 415.2979782039814ZM1367.9242329452977 466.2070691130723L1367.9242329452977 466.2070691130723Q1367.9242329452977 475.26767517367836 1363.3484753695398 479.6010085070117Q1358.7727177937822 483.904038810042 1350.4696874907522 483.904038810042L1350.4696874907522 483.904038810042Q1341.9545359756007 483.904038810042 1337.3484753695402 479.6010085070117Q1332.7727177937822 475.26767517367836 1332.7727177937822 466.2070691130723L1332.7727177937822 466.2070691130723Q1332.7727177937822 457.05555396155717 1337.3484753695402 452.904038810042Q1341.9545359756007 448.75252365852685 1350.4696874907522 448.75252365852685L1350.4696874907522 448.75252365852685Q1359.3181723392372 448.75252365852685 1363.6212026422672 452.904038810042Q1367.9242329452977 457.05555396155717 1367.9242329452977 466.2070691130723ZM1398.6212026422672 460.0252509312541L1398.6212026422672 401.23737214337535Q1398.6212026422672 396.75252365852685 1399.1060511271157 392.5100994161026Q1399.5605965816612 388.23737214337535 1401.2878693089338 384.873735779739Q1402.9848390059037 381.5100994161026 1406.1666571877217 379.44949335549654Q1409.3787783998432 377.3585842645875 1414.8030208240857 377.3585842645875L1414.8030208240857 377.3585842645875Q1420.2272632483277 377.3585842645875 1423.4393844604492 379.44949335549654Q1426.6212026422672 381.5100994161026 1428.3484753695398 384.873735779739Q1430.0454450665097 388.23737214337535 1430.5302935513582 392.5100994161026Q1431.0151420362067 396.75252365852685 1431.0151420362067 401.23737214337535L1431.0151420362067 401.23737214337535L1431.0151420362067 460.0252509312541Q1431.0151420362067 464.5100994161026 1430.5302935513582 468.843432749436Q1430.0454450665097 473.14646305246623 1428.3484753695398 476.5100994161026Q1426.6212026422672 479.8434327494359 1423.4393844604492 481.873735779739Q1420.2272632483277 483.904038810042 1414.8030208240857 483.904038810042L1414.8030208240857 483.904038810042Q1409.3787783998432 483.904038810042 1406.1666571877217 481.873735779739Q1402.9848390059037 479.8434327494359 1401.2878693089338 476.5100994161026Q1399.5605965816612 473.14646305246623 1399.1060511271157 468.843432749436Q1398.6212026422672 464.5100994161026 1398.6212026422672 460.0252509312541L1398.6212026422672 460.0252509312541ZM1431.2272632483277 350.93434184034504L1431.2272632483277 350.93434184034504Q1431.2272632483277 359.14646305246623 1426.9545359756007 363.14646305246623Q1422.6818087028732 367.14646305246623 1415.0151420362067 367.14646305246623L1415.0151420362067 367.14646305246623Q1407.3484753695398 367.14646305246623 1403.0757480968127 363.14646305246623Q1398.8333238543883 359.14646305246623 1398.8333238543883 350.93434184034504L1398.8333238543883 350.93434184034504Q1398.8333238543883 342.41919032519354 1403.0757480968127 338.6010085070117Q1407.3484753695398 334.75252365852685 1415.0151420362067 334.75252365852685L1415.0151420362067 334.75252365852685Q1423.2272632483277 334.75252365852685 1427.2272632483277 338.6010085070117Q1431.2272632483277 342.41919032519354 1431.2272632483277 350.93434184034504ZM1457.1969602180247 443.843432749436L1457.1969602180247 417.41919032519354Q1457.1969602180247 407.63131153731473 1459.8636268846917 400.8131297191329Q1462.5302935513582 393.9949479009511 1466.7424147634792 389.41919032519354Q1470.9545359756007 384.8131297191329 1476.1060511271157 382.26767517367836Q1481.2878693089338 379.7222206282238 1486.2878693089338 378.44949335549654Q1491.2878693089342 377.14646305246623 1495.6212026422672 376.843432749436Q1499.9242329452977 376.5100994161026 1502.3787783998432 376.5100994161026L1502.3787783998432 376.5100994161026Q1504.8333238543883 376.5100994161026 1509.1060511271157 376.843432749436Q1513.3484753695398 377.14646305246623 1518.1969602180247 378.44949335549654Q1523.0454450665097 379.7222206282238 1528.0151420362067 382.26767517367836Q1532.9545359756007 384.8131297191329 1536.9545359756007 389.41919032519354Q1540.9545359756007 393.9949479009511 1543.4999905210552 400.8131297191329Q1546.0454450665097 407.63131153731473 1546.0454450665097 417.41919032519354L1546.0454450665097 417.41919032519354L1546.0454450665097 443.843432749436Q1546.0454450665097 453.66161456761773 1543.4999905210552 460.47979638579955Q1540.9545359756007 467.29797820398136 1536.9545359756007 471.873735779739Q1532.9545359756007 476.44949335549654 1528.0151420362067 478.9949479009511Q1523.0454450665097 481.57070547670867 1518.1969602180247 482.843432749436Q1513.3484753695398 484.1161600221632 1509.1060511271157 484.44949335549654Q1504.8333238543883 484.75252365852685 1502.3787783998432 484.75252365852685L1502.3787783998432 484.75252365852685Q1499.9242329452977 484.75252365852685 1495.6212026422672 484.44949335549654Q1491.2878693089342 484.1161600221632 1486.2878693089338 482.843432749436Q1481.2878693089338 481.57070547670867 1476.1060511271157 478.9949479009511Q1470.9545359756007 476.44949335549654 1466.7424147634792 471.873735779739Q1462.5302935513582 467.29797820398136 1459.8636268846917 460.47979638579955Q1457.1969602180247 453.66161456761773 1457.1969602180247 443.843432749436L1457.1969602180247 443.843432749436ZM1490.0151420362067 412.75252365852685L1490.0151420362067 451.2979782039814Q1490.1363541574187 454.3888872948905 1491.4999905210552 456.75252365852685L1491.4999905210552 456.75252365852685Q1492.6818087028732 458.873735779739 1495.1969602180247 460.5100994161026Q1497.6818087028732 462.1767660827693 1502.3787783998432 462.1767660827693L1502.3787783998432 462.1767660827693Q1506.8636268846917 462.1767660827693 1509.2575662786307 460.5100994161026Q1511.6515056725702 458.873735779739 1512.8333238543883 456.75252365852685L1512.8333238543883 456.75252365852685Q1514.1060511271157 454.3888872948905 1514.3181723392368 451.2979782039814L1514.3181723392368 451.2979782039814L1514.3181723392368 412.75252365852685Q1514.1060511271157 409.54040244640566 1512.8333238543883 406.873735779739L1512.8333238543883 406.873735779739Q1511.6515056725702 404.75252365852685 1509.2575662786307 402.873735779739Q1506.8636268846917 401.0252509312541 1502.3787783998432 401.0252509312541L1502.3787783998432 401.0252509312541Q1497.6818087028732 401.0252509312541 1495.1969602180247 402.873735779739Q1492.6818087028732 404.75252365852685 1491.4999905210552 406.873735779739L1491.4999905210552 406.873735779739Q1490.1363541574187 409.54040244640566 1490.0151420362067 412.75252365852685L1490.0151420362067 412.75252365852685Z " fill="#16db65" transform="matrix(0.5659600977865562,0,0,0.5659600977865562,0,68.09642246777446)"/></g></svg>